<mxfile host="app.diagrams.net" modified="2023-11-01T13:11:39.772Z" agent="Mozilla/5.0 (Windows NT 10.0; Win64; x64) AppleWebKit/537.36 (KHTML, like Gecko) Chrome/118.0.0.0 Safari/537.36" etag="XhCe5KhBwpQuOiNerWYk" version="22.0.8" type="device">
  <diagram name="Page-1" id="CIg9Ezx60mvqx6suTcHn">
    <mxGraphModel dx="1174" dy="2411" grid="1" gridSize="2" guides="1" tooltips="1" connect="1" arrows="1" fold="1" page="1" pageScale="1" pageWidth="827" pageHeight="1169" math="0" shadow="0">
      <root>
        <mxCell id="0" />
        <mxCell id="1" parent="0" />
        <mxCell id="_879MR6t-2GijJNDmMTG-2" value="House" style="swimlane;fontStyle=2;align=center;verticalAlign=top;childLayout=stackLayout;horizontal=1;startSize=26;horizontalStack=0;resizeParent=1;resizeLast=0;collapsible=1;marginBottom=0;rounded=0;shadow=0;strokeWidth=1;" parent="1" vertex="1">
          <mxGeometry x="622" y="214" width="160" height="216" as="geometry">
            <mxRectangle x="230" y="140" width="160" height="26" as="alternateBounds" />
          </mxGeometry>
        </mxCell>
        <mxCell id="_879MR6t-2GijJNDmMTG-3" value="number_of_rooms: int" style="text;align=left;verticalAlign=top;spacingLeft=4;spacingRight=4;overflow=hidden;rotatable=0;points=[[0,0.5],[1,0.5]];portConstraint=eastwest;rounded=0;shadow=0;html=0;fillColor=#d5e8d4;strokeColor=#82b366;" parent="_879MR6t-2GijJNDmMTG-2" vertex="1">
          <mxGeometry y="26" width="160" height="26" as="geometry" />
        </mxCell>
        <mxCell id="YzDRFS8b6AQNJ1k75ycB-21" value="self_check-in: boolean" style="text;align=left;verticalAlign=top;spacingLeft=4;spacingRight=4;overflow=hidden;rotatable=0;points=[[0,0.5],[1,0.5]];portConstraint=eastwest;fontStyle=0;fillColor=#d5e8d4;strokeColor=#82b366;" parent="_879MR6t-2GijJNDmMTG-2" vertex="1">
          <mxGeometry y="52" width="160" height="24" as="geometry" />
        </mxCell>
        <mxCell id="YzDRFS8b6AQNJ1k75ycB-23" value="disable_friendly: boolean" style="text;align=left;verticalAlign=top;spacingLeft=4;spacingRight=4;overflow=hidden;rotatable=0;points=[[0,0.5],[1,0.5]];portConstraint=eastwest;fontStyle=0;fillColor=#d5e8d4;strokeColor=#82b366;" parent="_879MR6t-2GijJNDmMTG-2" vertex="1">
          <mxGeometry y="76" width="160" height="24" as="geometry" />
        </mxCell>
        <mxCell id="YzDRFS8b6AQNJ1k75ycB-24" value="garden: boolean" style="text;align=left;verticalAlign=top;spacingLeft=4;spacingRight=4;overflow=hidden;rotatable=0;points=[[0,0.5],[1,0.5]];portConstraint=eastwest;fontStyle=0;fillColor=#d5e8d4;strokeColor=#82b366;" parent="_879MR6t-2GijJNDmMTG-2" vertex="1">
          <mxGeometry y="100" width="160" height="24" as="geometry" />
        </mxCell>
        <mxCell id="_879MR6t-2GijJNDmMTG-5" value="" style="line;html=1;strokeWidth=1;align=left;verticalAlign=middle;spacingTop=-1;spacingLeft=3;spacingRight=3;rotatable=0;labelPosition=right;points=[];portConstraint=eastwest;" parent="_879MR6t-2GijJNDmMTG-2" vertex="1">
          <mxGeometry y="124" width="160" height="8" as="geometry" />
        </mxCell>
        <mxCell id="_879MR6t-2GijJNDmMTG-7" value="Flat" style="swimlane;fontStyle=2;align=center;verticalAlign=top;childLayout=stackLayout;horizontal=1;startSize=26;horizontalStack=0;resizeParent=1;resizeLast=0;collapsible=1;marginBottom=0;rounded=0;shadow=0;strokeWidth=1;" parent="1" vertex="1">
          <mxGeometry x="334" y="212" width="160" height="216" as="geometry">
            <mxRectangle x="230" y="140" width="160" height="26" as="alternateBounds" />
          </mxGeometry>
        </mxCell>
        <mxCell id="YzDRFS8b6AQNJ1k75ycB-16" value="separate_entrance: boolean" style="text;align=left;verticalAlign=top;spacingLeft=4;spacingRight=4;overflow=hidden;rotatable=0;points=[[0,0.5],[1,0.5]];portConstraint=eastwest;fontStyle=0;fillColor=#d5e8d4;strokeColor=#82b366;" parent="_879MR6t-2GijJNDmMTG-7" vertex="1">
          <mxGeometry y="26" width="160" height="24" as="geometry" />
        </mxCell>
        <mxCell id="YzDRFS8b6AQNJ1k75ycB-13" value="number_of_rooms: int" style="text;align=left;verticalAlign=top;spacingLeft=4;spacingRight=4;overflow=hidden;rotatable=0;points=[[0,0.5],[1,0.5]];portConstraint=eastwest;rounded=0;shadow=0;html=0;fillColor=#d5e8d4;strokeColor=#82b366;" parent="_879MR6t-2GijJNDmMTG-7" vertex="1">
          <mxGeometry y="50" width="160" height="26" as="geometry" />
        </mxCell>
        <mxCell id="YzDRFS8b6AQNJ1k75ycB-20" value="self_check-in: boolean" style="text;align=left;verticalAlign=top;spacingLeft=4;spacingRight=4;overflow=hidden;rotatable=0;points=[[0,0.5],[1,0.5]];portConstraint=eastwest;fontStyle=0;fillColor=#d5e8d4;strokeColor=#82b366;" parent="_879MR6t-2GijJNDmMTG-7" vertex="1">
          <mxGeometry y="76" width="160" height="24" as="geometry" />
        </mxCell>
        <mxCell id="YzDRFS8b6AQNJ1k75ycB-22" value="disable_friendly: boolean" style="text;align=left;verticalAlign=top;spacingLeft=4;spacingRight=4;overflow=hidden;rotatable=0;points=[[0,0.5],[1,0.5]];portConstraint=eastwest;fontStyle=0;fillColor=#d5e8d4;strokeColor=#82b366;" parent="_879MR6t-2GijJNDmMTG-7" vertex="1">
          <mxGeometry y="100" width="160" height="24" as="geometry" />
        </mxCell>
        <mxCell id="_879MR6t-2GijJNDmMTG-10" value="" style="line;html=1;strokeWidth=1;align=left;verticalAlign=middle;spacingTop=-1;spacingLeft=3;spacingRight=3;rotatable=0;labelPosition=right;points=[];portConstraint=eastwest;" parent="_879MR6t-2GijJNDmMTG-7" vertex="1">
          <mxGeometry y="124" width="160" height="8" as="geometry" />
        </mxCell>
        <mxCell id="_879MR6t-2GijJNDmMTG-12" value="Room" style="swimlane;fontStyle=2;align=center;verticalAlign=top;childLayout=stackLayout;horizontal=1;startSize=26;horizontalStack=0;resizeParent=1;resizeLast=0;collapsible=1;marginBottom=0;rounded=0;shadow=0;strokeWidth=1;" parent="1" vertex="1">
          <mxGeometry x="106" y="214" width="160" height="216" as="geometry">
            <mxRectangle x="230" y="140" width="160" height="26" as="alternateBounds" />
          </mxGeometry>
        </mxCell>
        <mxCell id="YzDRFS8b6AQNJ1k75ycB-12" value="separate_entrance: boolean" style="text;align=left;verticalAlign=top;spacingLeft=4;spacingRight=4;overflow=hidden;rotatable=0;points=[[0,0.5],[1,0.5]];portConstraint=eastwest;fontStyle=0;fillColor=#d5e8d4;strokeColor=#82b366;" parent="_879MR6t-2GijJNDmMTG-12" vertex="1">
          <mxGeometry y="26" width="160" height="24" as="geometry" />
        </mxCell>
        <mxCell id="YzDRFS8b6AQNJ1k75ycB-14" value="smoke_alarm: boolean" style="text;align=left;verticalAlign=top;spacingLeft=4;spacingRight=4;overflow=hidden;rotatable=0;points=[[0,0.5],[1,0.5]];portConstraint=eastwest;fontStyle=0;fillColor=#d5e8d4;strokeColor=#82b366;" parent="_879MR6t-2GijJNDmMTG-12" vertex="1">
          <mxGeometry y="50" width="160" height="24" as="geometry" />
        </mxCell>
        <mxCell id="YzDRFS8b6AQNJ1k75ycB-17" value="type: string (office/sleeping)" style="text;align=left;verticalAlign=top;spacingLeft=4;spacingRight=4;overflow=hidden;rotatable=0;points=[[0,0.5],[1,0.5]];portConstraint=eastwest;fontStyle=0;fillColor=#d5e8d4;strokeColor=#82b366;" parent="_879MR6t-2GijJNDmMTG-12" vertex="1">
          <mxGeometry y="74" width="160" height="24" as="geometry" />
        </mxCell>
        <mxCell id="YzDRFS8b6AQNJ1k75ycB-18" value="private_key: boolean" style="text;align=left;verticalAlign=top;spacingLeft=4;spacingRight=4;overflow=hidden;rotatable=0;points=[[0,0.5],[1,0.5]];portConstraint=eastwest;fontStyle=0;fillColor=#d5e8d4;strokeColor=#82b366;" parent="_879MR6t-2GijJNDmMTG-12" vertex="1">
          <mxGeometry y="98" width="160" height="24" as="geometry" />
        </mxCell>
        <mxCell id="YzDRFS8b6AQNJ1k75ycB-19" value="host_language: string" style="text;align=left;verticalAlign=top;spacingLeft=4;spacingRight=4;overflow=hidden;rotatable=0;points=[[0,0.5],[1,0.5]];portConstraint=eastwest;fontStyle=0;fillColor=#d5e8d4;strokeColor=#82b366;" parent="_879MR6t-2GijJNDmMTG-12" vertex="1">
          <mxGeometry y="122" width="160" height="24" as="geometry" />
        </mxCell>
        <mxCell id="_879MR6t-2GijJNDmMTG-14" value="" style="line;html=1;strokeWidth=1;align=left;verticalAlign=middle;spacingTop=-1;spacingLeft=3;spacingRight=3;rotatable=0;labelPosition=right;points=[];portConstraint=eastwest;" parent="_879MR6t-2GijJNDmMTG-12" vertex="1">
          <mxGeometry y="146" width="160" height="8" as="geometry" />
        </mxCell>
        <mxCell id="_879MR6t-2GijJNDmMTG-16" style="edgeStyle=orthogonalEdgeStyle;rounded=0;orthogonalLoop=1;jettySize=auto;html=1;entryX=0.5;entryY=0;entryDx=0;entryDy=0;startArrow=classic;startFill=1;endArrow=none;endFill=0;" parent="1" source="_879MR6t-2GijJNDmMTG-20" target="_879MR6t-2GijJNDmMTG-12" edge="1">
          <mxGeometry relative="1" as="geometry">
            <Array as="points">
              <mxPoint x="226" y="-32" />
              <mxPoint x="226" y="214" />
            </Array>
          </mxGeometry>
        </mxCell>
        <mxCell id="_879MR6t-2GijJNDmMTG-17" style="edgeStyle=orthogonalEdgeStyle;rounded=0;orthogonalLoop=1;jettySize=auto;html=1;exitX=0.5;exitY=1;exitDx=0;exitDy=0;entryX=0.5;entryY=0;entryDx=0;entryDy=0;endArrow=none;endFill=0;startArrow=classic;startFill=1;" parent="1" source="_879MR6t-2GijJNDmMTG-20" target="_879MR6t-2GijJNDmMTG-7" edge="1">
          <mxGeometry relative="1" as="geometry" />
        </mxCell>
        <mxCell id="_879MR6t-2GijJNDmMTG-18" style="edgeStyle=orthogonalEdgeStyle;rounded=0;orthogonalLoop=1;jettySize=auto;html=1;exitX=0.5;exitY=1;exitDx=0;exitDy=0;endArrow=none;endFill=0;startArrow=classic;startFill=1;" parent="1" source="_879MR6t-2GijJNDmMTG-20" target="_879MR6t-2GijJNDmMTG-2" edge="1">
          <mxGeometry relative="1" as="geometry" />
        </mxCell>
        <mxCell id="_879MR6t-2GijJNDmMTG-19" value="Extends" style="edgeLabel;html=1;align=center;verticalAlign=middle;resizable=0;points=[];" parent="_879MR6t-2GijJNDmMTG-18" vertex="1" connectable="0">
          <mxGeometry x="-0.93" y="1" relative="1" as="geometry">
            <mxPoint x="-1" y="21" as="offset" />
          </mxGeometry>
        </mxCell>
        <mxCell id="_879MR6t-2GijJNDmMTG-20" value="Property (abstract)" style="swimlane;fontStyle=2;align=center;verticalAlign=top;childLayout=stackLayout;horizontal=1;startSize=26;horizontalStack=0;resizeParent=1;resizeLast=0;collapsible=1;marginBottom=0;rounded=0;shadow=0;strokeWidth=1;fillColor=#f5f5f5;fontColor=#333333;strokeColor=#666666;" parent="1" vertex="1">
          <mxGeometry x="320" y="-222" width="160" height="380" as="geometry">
            <mxRectangle x="230" y="140" width="160" height="26" as="alternateBounds" />
          </mxGeometry>
        </mxCell>
        <mxCell id="_879MR6t-2GijJNDmMTG-21" value="-tenants: List&lt;Tenant&gt;" style="text;align=left;verticalAlign=top;spacingLeft=4;spacingRight=4;overflow=hidden;rotatable=0;points=[[0,0.5],[1,0.5]];portConstraint=eastwest;rounded=0;shadow=0;html=0;fillColor=#f8cecc;strokeColor=#b85450;" parent="_879MR6t-2GijJNDmMTG-20" vertex="1">
          <mxGeometry y="26" width="160" height="26" as="geometry" />
        </mxCell>
        <mxCell id="_879MR6t-2GijJNDmMTG-22" value="-owner: Landlord" style="text;align=left;verticalAlign=top;spacingLeft=4;spacingRight=4;overflow=hidden;rotatable=0;points=[[0,0.5],[1,0.5]];portConstraint=eastwest;rounded=0;shadow=0;html=0;fillColor=#d5e8d4;strokeColor=#82b366;" parent="_879MR6t-2GijJNDmMTG-20" vertex="1">
          <mxGeometry y="52" width="160" height="26" as="geometry" />
        </mxCell>
        <mxCell id="_879MR6t-2GijJNDmMTG-23" value="+facilities: Facilities" style="text;align=left;verticalAlign=top;spacingLeft=4;spacingRight=4;overflow=hidden;rotatable=0;points=[[0,0.5],[1,0.5]];portConstraint=eastwest;rounded=0;shadow=0;html=0;fillColor=#fff2cc;strokeColor=#d6b656;" parent="_879MR6t-2GijJNDmMTG-20" vertex="1">
          <mxGeometry y="78" width="160" height="26" as="geometry" />
        </mxCell>
        <mxCell id="_879MR6t-2GijJNDmMTG-24" value="+engagement: boolean" style="text;align=left;verticalAlign=top;spacingLeft=4;spacingRight=4;overflow=hidden;rotatable=0;points=[[0,0.5],[1,0.5]];portConstraint=eastwest;fillColor=#d5e8d4;strokeColor=#82b366;" parent="_879MR6t-2GijJNDmMTG-20" vertex="1">
          <mxGeometry y="104" width="160" height="26" as="geometry" />
        </mxCell>
        <mxCell id="YzDRFS8b6AQNJ1k75ycB-11" value="+luxury_level: int" style="text;align=left;verticalAlign=top;spacingLeft=4;spacingRight=4;overflow=hidden;rotatable=0;points=[[0,0.5],[1,0.5]];portConstraint=eastwest;rounded=0;shadow=0;html=0;fillColor=#d5e8d4;strokeColor=#82b366;" parent="_879MR6t-2GijJNDmMTG-20" vertex="1">
          <mxGeometry y="130" width="160" height="26" as="geometry" />
        </mxCell>
        <mxCell id="_879MR6t-2GijJNDmMTG-13" value="-price: int" style="text;align=left;verticalAlign=top;spacingLeft=4;spacingRight=4;overflow=hidden;rotatable=0;points=[[0,0.5],[1,0.5]];portConstraint=eastwest;rounded=0;shadow=0;html=0;fillColor=#d5e8d4;strokeColor=#82b366;" parent="_879MR6t-2GijJNDmMTG-20" vertex="1">
          <mxGeometry y="156" width="160" height="26" as="geometry" />
        </mxCell>
        <mxCell id="YzDRFS8b6AQNJ1k75ycB-27" value="-id: int" style="text;align=left;verticalAlign=top;spacingLeft=4;spacingRight=4;overflow=hidden;rotatable=0;points=[[0,0.5],[1,0.5]];portConstraint=eastwest;rounded=0;shadow=0;html=0;fillColor=#d5e8d4;strokeColor=#82b366;" parent="_879MR6t-2GijJNDmMTG-20" vertex="1">
          <mxGeometry y="182" width="160" height="26" as="geometry" />
        </mxCell>
        <mxCell id="_879MR6t-2GijJNDmMTG-25" value="" style="line;html=1;strokeWidth=1;align=left;verticalAlign=middle;spacingTop=-1;spacingLeft=3;spacingRight=3;rotatable=0;labelPosition=right;points=[];portConstraint=eastwest;" parent="_879MR6t-2GijJNDmMTG-20" vertex="1">
          <mxGeometry y="208" width="160" height="8" as="geometry" />
        </mxCell>
        <mxCell id="_879MR6t-2GijJNDmMTG-26" value="+getOwner()" style="text;align=left;verticalAlign=top;spacingLeft=4;spacingRight=4;overflow=hidden;rotatable=0;points=[[0,0.5],[1,0.5]];portConstraint=eastwest;fillColor=#d5e8d4;strokeColor=#82b366;" parent="_879MR6t-2GijJNDmMTG-20" vertex="1">
          <mxGeometry y="216" width="160" height="26" as="geometry" />
        </mxCell>
        <mxCell id="_879MR6t-2GijJNDmMTG-27" value="+getTenant()" style="text;align=left;verticalAlign=top;spacingLeft=4;spacingRight=4;overflow=hidden;rotatable=0;points=[[0,0.5],[1,0.5]];portConstraint=eastwest;fillColor=#f8cecc;strokeColor=#b85450;" parent="_879MR6t-2GijJNDmMTG-20" vertex="1">
          <mxGeometry y="242" width="160" height="26" as="geometry" />
        </mxCell>
        <mxCell id="YzDRFS8b6AQNJ1k75ycB-25" value="+getPrice()" style="text;align=left;verticalAlign=top;spacingLeft=4;spacingRight=4;overflow=hidden;rotatable=0;points=[[0,0.5],[1,0.5]];portConstraint=eastwest;fillColor=#d5e8d4;strokeColor=#82b366;" parent="_879MR6t-2GijJNDmMTG-20" vertex="1">
          <mxGeometry y="268" width="160" height="26" as="geometry" />
        </mxCell>
        <mxCell id="YzDRFS8b6AQNJ1k75ycB-28" value="+getId()" style="text;align=left;verticalAlign=top;spacingLeft=4;spacingRight=4;overflow=hidden;rotatable=0;points=[[0,0.5],[1,0.5]];portConstraint=eastwest;fillColor=#d5e8d4;strokeColor=#82b366;" parent="_879MR6t-2GijJNDmMTG-20" vertex="1">
          <mxGeometry y="294" width="160" height="26" as="geometry" />
        </mxCell>
        <mxCell id="YzDRFS8b6AQNJ1k75ycB-30" value="" style="line;html=1;strokeWidth=1;align=left;verticalAlign=middle;spacingTop=-1;spacingLeft=3;spacingRight=3;rotatable=0;labelPosition=right;points=[];portConstraint=eastwest;" parent="_879MR6t-2GijJNDmMTG-20" vertex="1">
          <mxGeometry y="320" width="160" height="8" as="geometry" />
        </mxCell>
        <mxCell id="YzDRFS8b6AQNJ1k75ycB-29" value="+setId()" style="text;align=left;verticalAlign=top;spacingLeft=4;spacingRight=4;overflow=hidden;rotatable=0;points=[[0,0.5],[1,0.5]];portConstraint=eastwest;fillColor=#d5e8d4;strokeColor=#82b366;" parent="_879MR6t-2GijJNDmMTG-20" vertex="1">
          <mxGeometry y="328" width="160" height="26" as="geometry" />
        </mxCell>
        <mxCell id="YzDRFS8b6AQNJ1k75ycB-31" value="+setPrice()" style="text;align=left;verticalAlign=top;spacingLeft=4;spacingRight=4;overflow=hidden;rotatable=0;points=[[0,0.5],[1,0.5]];portConstraint=eastwest;fillColor=#d5e8d4;strokeColor=#82b366;" parent="_879MR6t-2GijJNDmMTG-20" vertex="1">
          <mxGeometry y="354" width="160" height="26" as="geometry" />
        </mxCell>
        <mxCell id="_879MR6t-2GijJNDmMTG-44" value="sprint1: more properties in the flats itp i(lux or normal fo example?, price, itp), + landlord class&lt;br&gt;&lt;br&gt;sprint 2:&lt;br&gt;state pattern" style="text;html=1;strokeColor=none;fillColor=none;align=center;verticalAlign=middle;whiteSpace=wrap;rounded=0;" parent="1" vertex="1">
          <mxGeometry x="260" y="-386" width="556" height="110" as="geometry" />
        </mxCell>
        <mxCell id="YzDRFS8b6AQNJ1k75ycB-1" value="" style="edgeStyle=orthogonalEdgeStyle;rounded=0;orthogonalLoop=1;jettySize=auto;html=1;entryX=0;entryY=0.5;entryDx=0;entryDy=0;" parent="1" source="08Q4Caeq3yxX9QelcsKG-1" target="_879MR6t-2GijJNDmMTG-22" edge="1">
          <mxGeometry relative="1" as="geometry">
            <mxPoint x="218" y="-182.9677419354839" as="sourcePoint" />
          </mxGeometry>
        </mxCell>
        <mxCell id="YzDRFS8b6AQNJ1k75ycB-2" value="Association" style="edgeLabel;html=1;align=center;verticalAlign=middle;resizable=0;points=[];" parent="YzDRFS8b6AQNJ1k75ycB-1" vertex="1" connectable="0">
          <mxGeometry x="-0.401" y="-1" relative="1" as="geometry">
            <mxPoint as="offset" />
          </mxGeometry>
        </mxCell>
        <mxCell id="08Q4Caeq3yxX9QelcsKG-1" value="Landlord" style="swimlane;fontStyle=0;align=center;verticalAlign=top;childLayout=stackLayout;horizontal=1;startSize=26;horizontalStack=0;resizeParent=1;resizeLast=0;collapsible=1;marginBottom=0;rounded=0;shadow=0;strokeWidth=1;" parent="1" vertex="1">
          <mxGeometry x="18" y="-252" width="160" height="238" as="geometry">
            <mxRectangle x="130" y="380" width="160" height="26" as="alternateBounds" />
          </mxGeometry>
        </mxCell>
        <mxCell id="08Q4Caeq3yxX9QelcsKG-2" value="-landlord_ID: int" style="text;align=left;verticalAlign=top;spacingLeft=4;spacingRight=4;overflow=hidden;rotatable=0;points=[[0,0.5],[1,0.5]];portConstraint=eastwest;fillColor=#d5e8d4;strokeColor=#82b366;" parent="08Q4Caeq3yxX9QelcsKG-1" vertex="1">
          <mxGeometry y="26" width="160" height="26" as="geometry" />
        </mxCell>
        <mxCell id="08Q4Caeq3yxX9QelcsKG-3" value="-properties: List &lt;Property&gt;...&gt;" style="text;align=left;verticalAlign=top;spacingLeft=4;spacingRight=4;overflow=hidden;rotatable=0;points=[[0,0.5],[1,0.5]];portConstraint=eastwest;" parent="08Q4Caeq3yxX9QelcsKG-1" vertex="1">
          <mxGeometry y="52" width="160" height="26" as="geometry" />
        </mxCell>
        <mxCell id="08Q4Caeq3yxX9QelcsKG-4" value="" style="line;html=1;strokeWidth=1;align=left;verticalAlign=middle;spacingTop=-1;spacingLeft=3;spacingRight=3;rotatable=0;labelPosition=right;points=[];portConstraint=eastwest;" parent="08Q4Caeq3yxX9QelcsKG-1" vertex="1">
          <mxGeometry y="78" width="160" height="8" as="geometry" />
        </mxCell>
        <mxCell id="08Q4Caeq3yxX9QelcsKG-5" value="+getID()" style="text;align=left;verticalAlign=top;spacingLeft=4;spacingRight=4;overflow=hidden;rotatable=0;points=[[0,0.5],[1,0.5]];portConstraint=eastwest;fillColor=#d5e8d4;strokeColor=#82b366;" parent="08Q4Caeq3yxX9QelcsKG-1" vertex="1">
          <mxGeometry y="86" width="160" height="24" as="geometry" />
        </mxCell>
        <mxCell id="08Q4Caeq3yxX9QelcsKG-6" value="+getIFormatedProperties()" style="text;align=left;verticalAlign=top;spacingLeft=4;spacingRight=4;overflow=hidden;rotatable=0;points=[[0,0.5],[1,0.5]];portConstraint=eastwest;" parent="08Q4Caeq3yxX9QelcsKG-1" vertex="1">
          <mxGeometry y="110" width="160" height="24" as="geometry" />
        </mxCell>
        <mxCell id="08Q4Caeq3yxX9QelcsKG-7" value="" style="line;html=1;strokeWidth=1;align=left;verticalAlign=middle;spacingTop=-1;spacingLeft=3;spacingRight=3;rotatable=0;labelPosition=right;points=[];portConstraint=eastwest;" parent="08Q4Caeq3yxX9QelcsKG-1" vertex="1">
          <mxGeometry y="134" width="160" height="8" as="geometry" />
        </mxCell>
        <mxCell id="08Q4Caeq3yxX9QelcsKG-10" value="+addProperties()" style="text;align=left;verticalAlign=top;spacingLeft=4;spacingRight=4;overflow=hidden;rotatable=0;points=[[0,0.5],[1,0.5]];portConstraint=eastwest;" parent="08Q4Caeq3yxX9QelcsKG-1" vertex="1">
          <mxGeometry y="142" width="160" height="24" as="geometry" />
        </mxCell>
        <mxCell id="08Q4Caeq3yxX9QelcsKG-11" value="+deleteProperties()" style="text;align=left;verticalAlign=top;spacingLeft=4;spacingRight=4;overflow=hidden;rotatable=0;points=[[0,0.5],[1,0.5]];portConstraint=eastwest;" parent="08Q4Caeq3yxX9QelcsKG-1" vertex="1">
          <mxGeometry y="166" width="160" height="24" as="geometry" />
        </mxCell>
        <mxCell id="08Q4Caeq3yxX9QelcsKG-9" value="+setID()" style="text;align=left;verticalAlign=top;spacingLeft=4;spacingRight=4;overflow=hidden;rotatable=0;points=[[0,0.5],[1,0.5]];portConstraint=eastwest;fillColor=#d5e8d4;strokeColor=#82b366;" parent="08Q4Caeq3yxX9QelcsKG-1" vertex="1">
          <mxGeometry y="190" width="160" height="24" as="geometry" />
        </mxCell>
        <mxCell id="WIct_mZXtRRlxKWXM11I-23" value="" style="edgeStyle=orthogonalEdgeStyle;rounded=0;orthogonalLoop=1;jettySize=auto;html=1;entryX=0.5;entryY=0;entryDx=0;entryDy=0;" parent="1" source="WIct_mZXtRRlxKWXM11I-1" target="08Q4Caeq3yxX9QelcsKG-1" edge="1">
          <mxGeometry relative="1" as="geometry" />
        </mxCell>
        <mxCell id="WIct_mZXtRRlxKWXM11I-1" value="Person (abstract)" style="swimlane;fontStyle=2;align=center;verticalAlign=top;childLayout=stackLayout;horizontal=1;startSize=26;horizontalStack=0;resizeParent=1;resizeLast=0;collapsible=1;marginBottom=0;rounded=0;shadow=0;strokeWidth=1;" parent="1" vertex="1">
          <mxGeometry x="22" y="-950" width="160" height="626" as="geometry">
            <mxRectangle x="230" y="140" width="160" height="26" as="alternateBounds" />
          </mxGeometry>
        </mxCell>
        <mxCell id="WIct_mZXtRRlxKWXM11I-2" value="+firstName: string" style="text;align=left;verticalAlign=top;spacingLeft=4;spacingRight=4;overflow=hidden;rotatable=0;points=[[0,0.5],[1,0.5]];portConstraint=eastwest;fillColor=#d5e8d4;strokeColor=#82b366;" parent="WIct_mZXtRRlxKWXM11I-1" vertex="1">
          <mxGeometry y="26" width="160" height="26" as="geometry" />
        </mxCell>
        <mxCell id="WIct_mZXtRRlxKWXM11I-3" value="+lastName: string" style="text;align=left;verticalAlign=top;spacingLeft=4;spacingRight=4;overflow=hidden;rotatable=0;points=[[0,0.5],[1,0.5]];portConstraint=eastwest;rounded=0;shadow=0;html=0;fillColor=#d5e8d4;strokeColor=#82b366;" parent="WIct_mZXtRRlxKWXM11I-1" vertex="1">
          <mxGeometry y="52" width="160" height="26" as="geometry" />
        </mxCell>
        <mxCell id="WIct_mZXtRRlxKWXM11I-4" value="+e-mail: string" style="text;align=left;verticalAlign=top;spacingLeft=4;spacingRight=4;overflow=hidden;rotatable=0;points=[[0,0.5],[1,0.5]];portConstraint=eastwest;rounded=0;shadow=0;html=0;fillColor=#d5e8d4;strokeColor=#82b366;" parent="WIct_mZXtRRlxKWXM11I-1" vertex="1">
          <mxGeometry y="78" width="160" height="26" as="geometry" />
        </mxCell>
        <mxCell id="WIct_mZXtRRlxKWXM11I-5" value="-phone: int" style="text;align=left;verticalAlign=top;spacingLeft=4;spacingRight=4;overflow=hidden;rotatable=0;points=[[0,0.5],[1,0.5]];portConstraint=eastwest;rounded=0;shadow=0;html=0;fillColor=#d5e8d4;strokeColor=#82b366;" parent="WIct_mZXtRRlxKWXM11I-1" vertex="1">
          <mxGeometry y="104" width="160" height="26" as="geometry" />
        </mxCell>
        <mxCell id="WIct_mZXtRRlxKWXM11I-6" value="-dob: date" style="text;align=left;verticalAlign=top;spacingLeft=4;spacingRight=4;overflow=hidden;rotatable=0;points=[[0,0.5],[1,0.5]];portConstraint=eastwest;rounded=0;shadow=0;html=0;" parent="WIct_mZXtRRlxKWXM11I-1" vertex="1">
          <mxGeometry y="130" width="160" height="26" as="geometry" />
        </mxCell>
        <mxCell id="WIct_mZXtRRlxKWXM11I-7" value="-bank_details{&#xa;    a_number: int&#xa;    sort_code: int&#xa;}" style="text;align=left;verticalAlign=top;spacingLeft=4;spacingRight=4;overflow=hidden;rotatable=0;points=[[0,0.5],[1,0.5]];portConstraint=eastwest;rounded=0;shadow=0;html=0;" parent="WIct_mZXtRRlxKWXM11I-1" vertex="1">
          <mxGeometry y="156" width="160" height="64" as="geometry" />
        </mxCell>
        <mxCell id="WIct_mZXtRRlxKWXM11I-8" value="-premium_member: boolean" style="text;align=left;verticalAlign=top;spacingLeft=4;spacingRight=4;overflow=hidden;rotatable=0;points=[[0,0.5],[1,0.5]];portConstraint=eastwest;fillColor=#d5e8d4;strokeColor=#82b366;" parent="WIct_mZXtRRlxKWXM11I-1" vertex="1">
          <mxGeometry y="220" width="160" height="30" as="geometry" />
        </mxCell>
        <mxCell id="WIct_mZXtRRlxKWXM11I-9" value="-red_flag: boolean" style="text;align=left;verticalAlign=top;spacingLeft=4;spacingRight=4;overflow=hidden;rotatable=0;points=[[0,0.5],[1,0.5]];portConstraint=eastwest;fillColor=#d5e8d4;strokeColor=#82b366;" parent="WIct_mZXtRRlxKWXM11I-1" vertex="1">
          <mxGeometry y="250" width="160" height="26" as="geometry" />
        </mxCell>
        <mxCell id="WIct_mZXtRRlxKWXM11I-10" value="" style="line;html=1;strokeWidth=1;align=left;verticalAlign=middle;spacingTop=-1;spacingLeft=3;spacingRight=3;rotatable=0;labelPosition=right;points=[];portConstraint=eastwest;" parent="WIct_mZXtRRlxKWXM11I-1" vertex="1">
          <mxGeometry y="276" width="160" height="8" as="geometry" />
        </mxCell>
        <mxCell id="WIct_mZXtRRlxKWXM11I-11" value="+getFromattedName()" style="text;align=left;verticalAlign=top;spacingLeft=4;spacingRight=4;overflow=hidden;rotatable=0;points=[[0,0.5],[1,0.5]];portConstraint=eastwest;fillColor=#d5e8d4;strokeColor=#82b366;" parent="WIct_mZXtRRlxKWXM11I-1" vertex="1">
          <mxGeometry y="284" width="160" height="26" as="geometry" />
        </mxCell>
        <mxCell id="WIct_mZXtRRlxKWXM11I-12" value="+getPhone()" style="text;align=left;verticalAlign=top;spacingLeft=4;spacingRight=4;overflow=hidden;rotatable=0;points=[[0,0.5],[1,0.5]];portConstraint=eastwest;fillColor=#d5e8d4;strokeColor=#82b366;" parent="WIct_mZXtRRlxKWXM11I-1" vertex="1">
          <mxGeometry y="310" width="160" height="26" as="geometry" />
        </mxCell>
        <mxCell id="WIct_mZXtRRlxKWXM11I-13" value="+getDoB()" style="text;align=left;verticalAlign=top;spacingLeft=4;spacingRight=4;overflow=hidden;rotatable=0;points=[[0,0.5],[1,0.5]];portConstraint=eastwest;" parent="WIct_mZXtRRlxKWXM11I-1" vertex="1">
          <mxGeometry y="336" width="160" height="26" as="geometry" />
        </mxCell>
        <mxCell id="WIct_mZXtRRlxKWXM11I-14" value="+getBankDetails()" style="text;align=left;verticalAlign=top;spacingLeft=4;spacingRight=4;overflow=hidden;rotatable=0;points=[[0,0.5],[1,0.5]];portConstraint=eastwest;" parent="WIct_mZXtRRlxKWXM11I-1" vertex="1">
          <mxGeometry y="362" width="160" height="26" as="geometry" />
        </mxCell>
        <mxCell id="WIct_mZXtRRlxKWXM11I-15" value="+isPremium()" style="text;align=left;verticalAlign=top;spacingLeft=4;spacingRight=4;overflow=hidden;rotatable=0;points=[[0,0.5],[1,0.5]];portConstraint=eastwest;fillColor=#d5e8d4;strokeColor=#82b366;" parent="WIct_mZXtRRlxKWXM11I-1" vertex="1">
          <mxGeometry y="388" width="160" height="24" as="geometry" />
        </mxCell>
        <mxCell id="WIct_mZXtRRlxKWXM11I-16" value="+isRedFlagged()" style="text;align=left;verticalAlign=top;spacingLeft=4;spacingRight=4;overflow=hidden;rotatable=0;points=[[0,0.5],[1,0.5]];portConstraint=eastwest;fillColor=#d5e8d4;strokeColor=#82b366;" parent="WIct_mZXtRRlxKWXM11I-1" vertex="1">
          <mxGeometry y="412" width="160" height="24" as="geometry" />
        </mxCell>
        <mxCell id="WIct_mZXtRRlxKWXM11I-17" value="" style="line;html=1;strokeWidth=1;align=left;verticalAlign=middle;spacingTop=-1;spacingLeft=3;spacingRight=3;rotatable=0;labelPosition=right;points=[];portConstraint=eastwest;" parent="WIct_mZXtRRlxKWXM11I-1" vertex="1">
          <mxGeometry y="436" width="160" height="8" as="geometry" />
        </mxCell>
        <mxCell id="WIct_mZXtRRlxKWXM11I-18" value="+setPhone()" style="text;align=left;verticalAlign=top;spacingLeft=4;spacingRight=4;overflow=hidden;rotatable=0;points=[[0,0.5],[1,0.5]];portConstraint=eastwest;fillColor=#d5e8d4;strokeColor=#82b366;" parent="WIct_mZXtRRlxKWXM11I-1" vertex="1">
          <mxGeometry y="444" width="160" height="26" as="geometry" />
        </mxCell>
        <mxCell id="WIct_mZXtRRlxKWXM11I-19" value="+setDoB()" style="text;align=left;verticalAlign=top;spacingLeft=4;spacingRight=4;overflow=hidden;rotatable=0;points=[[0,0.5],[1,0.5]];portConstraint=eastwest;rounded=0;shadow=0;html=0;" parent="WIct_mZXtRRlxKWXM11I-1" vertex="1">
          <mxGeometry y="470" width="160" height="26" as="geometry" />
        </mxCell>
        <mxCell id="WIct_mZXtRRlxKWXM11I-20" value="+setBankDetails()" style="text;align=left;verticalAlign=top;spacingLeft=4;spacingRight=4;overflow=hidden;rotatable=0;points=[[0,0.5],[1,0.5]];portConstraint=eastwest;" parent="WIct_mZXtRRlxKWXM11I-1" vertex="1">
          <mxGeometry y="496" width="160" height="26" as="geometry" />
        </mxCell>
        <mxCell id="WIct_mZXtRRlxKWXM11I-21" value="+setID()" style="text;align=left;verticalAlign=top;spacingLeft=4;spacingRight=4;overflow=hidden;rotatable=0;points=[[0,0.5],[1,0.5]];portConstraint=eastwest;fillColor=#d5e8d4;strokeColor=#82b366;" parent="WIct_mZXtRRlxKWXM11I-1" vertex="1">
          <mxGeometry y="522" width="160" height="24" as="geometry" />
        </mxCell>
        <mxCell id="WIct_mZXtRRlxKWXM11I-22" value="+setStatus()" style="text;align=left;verticalAlign=top;spacingLeft=4;spacingRight=4;overflow=hidden;rotatable=0;points=[[0,0.5],[1,0.5]];portConstraint=eastwest;fillColor=#d5e8d4;strokeColor=#82b366;" parent="WIct_mZXtRRlxKWXM11I-1" vertex="1">
          <mxGeometry y="546" width="160" height="24" as="geometry" />
        </mxCell>
        <mxCell id="2RgV12ZcJg-5rhlzUmzn-1" value="sTRUCT TO TANIA CLASA - ZRÓB CLASE ZAMIAS STRUCTA" style="text;html=1;align=center;verticalAlign=middle;resizable=0;points=[];autosize=1;strokeColor=none;fillColor=none;" vertex="1" parent="1">
          <mxGeometry x="359.5" y="-454" width="357" height="27" as="geometry" />
        </mxCell>
      </root>
    </mxGraphModel>
  </diagram>
</mxfile>
